<svg xmlns="http://www.w3.org/2000/svg" width="24" height="24" viewBox="0 0 24 24"><defs><clipPath id="a"><path d="M4 0h17v23H4Zm0 0"/></clipPath><clipPath id="b"><path d="M3 0h19v24H3Zm0 0"/></clipPath></defs><g clip-path="url(#a)"><path d="m20.5 18.5-.1-.1v-.5l-.1-.1v-.3h-.1V17H20v-1H20v-.4h-.1l-.1-.1v-.1h-.1v-.6h-.1v-.1h-.1v-.3h-.1v-.4h-.1v-.4h-.1V13H19v-.3l-.1-.1v-.3l-.2-.1v-.8h-.1v-.2h-.2v-.9h-.1V10h-.1v-.4h-.1v-.4H18V9H18V7.6h-.1V7h-.1V7h-.1v-.4l-.1-.1h-.1v-.1l-.1-.1v-.5h-.1v-.1H17v-.3l-.1-.1h-.1l-.1-.1V5l-.1-.1v-.1h-.1v-.1h-.1v-.1l-.1-.1v-.2h-.1v-.1H16v-.1l-.2-.1v-.3l-.1-.1-.1-.1-.1-.1-.1-.1h-.1v-.1h-.1v-.1l-.1-.1V3H15v-.2l-.2-.1v-.1h-.1v-.2h-.1v-.1h-.1l-.2-.2h-.1V2h-.1v-.2H14v-.1h-.2v-.1h-.2v-.1h-.1l-.1-.1h-.1v-.1h-.2l-.1-.1V1H13V1l-.1-.1h-.4V.7h-.6l-.1.1h-.3l-.1.1h-.5v.1h-.1V1h-.4l-.1.1H10v.1l-.1.1v.1h-.2v.1h-.3v.2h-.1v.1l-.1.1V2l-.1.1h-.3v.1l-.1.1v.1h-.1v.2h-.1v.1h-.1l-.1.1h-.2v.3H8v.1H8v.1l-.2.1-.2.2h-.1v.1h-.2V4h-.1V4H7v.1h-.1v.3h-.1v1.9l.1.1v.3l.1.1V7l.1.1v.4h.1v.1h.1v.9h.1v.2h.1v.6h-.1v.1l.1.1v.2l-.1.1v.4h.1v.1l-.1.1v.2h.1v.6h-.1v.7l-.1.1v.5l-.1.1v.2H7v.1H7v.1h-.2v.8h-.1v.3h-.1v.3h-.1v.2h-.1v.2l-.1.2v.2H6v.1l-.1.1v.2h-.1v.6h-.1v.1l-.1.1h-.1v.9h-.1v.1h-.2v.1h-.1v.2H5v.8h-.2v1.1h-.1l-.1.1v.6l-.1.1v.6h-.1v.4l-.1.1v.3h.1v.1h.1v.1h.5v-.1h.1v-.2h.1v-.1l.1-.1v-.1h.1v-.1h.1V21h.1v-.4l.2-.1v-.2H6v-.1l.1-.2h.1l.2-.2v-.1h.1v-.1h.1v-.4h.1v-.3l.1-.1H7v.1l.1.1v.2h.1v.2h.1v.2l-.1.1v.7H7v1.1l.2.1v.4h.2l.1.1H8v-.3l.1-.1v-.1l.1-.1v-.6l-.1-.1v-.4h.1v-.2h.1V20h.1v-.5h.1V19h.1v-.5h.1l.1-.1v-.1H9v-.8H9v-.1h.2v-.1h.1l.1-.1v-.6l.1-.1v-.8h.1v-.9l.1-.1v-.4l.1-.1v-.3h.1v-.4h.1v-.2l.1-.1V13l.2-.1v.2h-.1v1l-.1.1v.7H10v.9h-.1v.8h-.2v.7h-.1l-.1.1v.1l-.2.1v.2l.1.1v.2h-.1v.3h-.1v.1H9v.8h.1v.2l.1.1v.9l.1.1v.7l.1.1h.2v.1h.5v-.1l.1-.1v-.1l.1-.1v-.5l.1-.1v-.5h.1v-.4l-.1-.1v-.3h.1v-.1l.1-.1v-.3l.1-.2-.1-.1v-.1l.1-.1v-.5l-.1-.1v-.2h.1V17h.1v.3h.1v.6h.1l.1.1.1.1h.3v.6h.1v.1h.1v.4h.1v.1h.1v.2l.1.1v.7H12v.2h-.1v.1l-.1.1v.1l-.1.1v.6h-.1l-.1.2v.1h-.1v.5h.1v.1l.1.1h.1v.1l.1.1h.1v.1h.4v-.1h.1l.1-.1h.1v-.1h.1v-.2h.1V22l.1-.1h.1v-1h.1v-.2h.1v-.1h.1v-1.9l.1-.1v-.3h.1v-.1l-.1-.1V18h.1v-.5h-.1v-.2l.1-.1V17h.1v.8l.1.1v.4h.1v.1l.1.1v.1l.1.1v.2h.1v.8l.1.1v1h.1v.1h.1v.1h.2v.2h.1v.1h.2v.1h.8l.1-.1h.3v-.1l.1-.1V21h.1v-.9h.1v.1h.1l.1.1h.1v.1h.1v.5h.3l.1.1h.8v-.5l.1-.1v-.1h.2v-.2h.1v-.4l-.1-.1v-.5h.1v-.3h.1v-.2l-.1-.1v-1h.1v.2l.1.1v.1l.1.1v.1h.2l.1.1.1.1.1.1v.1h.2v.3h.1v.2h.1v.1h.1v.1h.3v.1h.1l.1-.1.1-.1h.1v-.5zM8.5 5.8v-.1Zm0 0V6h-.1v.3l-.1.1v-.4Zm-.1-.3Zm-.2.3.1-.1zV6zm0 .9v-.3l.1.1zm0 9.8v-.3.2Zm.3-1.2-.1.1v.4l-.1.1v.1h-.1v-.6h.1v-.1zm3.3-13.1Zm-1.3 10v.1h-.1v-.1Zm.8-9.6h-.1v.1H11v.1H11V3h-.1v.4h-.3l-.1-.1v-.9h.2v-.1h.2V2h.6v.1h.2-.1v.1h-.3v.1h-.1v.1H11l-.1.1h-.1v.1l-.1.1h.2v-.1h.1zm.5-.4h-.1Zm-.1 0Zm-.2.2Zm.5 9.4h-.1v.1h-.4v-.3h.1v-.1h.4v.2Zm.2-9.6H12L12 2l.1-.1h.2v-.1h.2l.1.1h-.2l-.1.1Zm.6 12.5h-.1v.4l-.1.1v.3l.1.2V17l-.1.2h-.3v-.2h.1v-.6h.1v-.5l-.1-.1v-.1h-.1v-.2l.1-.1V15h.1v-.8l.1-.1h.1v.4Zm0-1v.3h-.1v-.1l-.1-.1v-.1l.1-.1zm1.5-2v.1zm.5 6.4-.1-.1v-.3l-.1-.1v-.4h-.1v-.3h.2v.2l.1.1v.3h-.1v.4h.1zm0-14v.1h-.4V4l-.1-.1v-.1H14v-.2H14v-.2h.1v.1h.1v.1h.2v.2h.2V4l.1.1zm.2 15V19h.2zm.4 1.3h-.1v-.1l-.2-.1v-.4h.1v.1l.1.1v.4m.5-5.8h-.1v1.1h-.1v.2h-.1v-1.4l.1-.1h.1zm.3-6.8H16v-.2h-.1V7h-.2.1v-.4h-.1l-.1-.1-.1-.1-.1-.1h-.1v-.1H15v-.5l.1-.1v.2h.4V6h.1v.3h.1v.2l.1.1.1.1V7h.1v.1l.1.1v.6Zm0 12.4V20h.1v.1Zm.4-7.2h-.1v-.6h-.1V12v.1h.1v.3l.1.1v.5Zm.3 1.7h-.1V14h-.1v-.3h-.1v-.3h.1v.6h.1v.1l.1.1v.4Zm.3 1-.1-.1v-.1h-.1v-.3.2h.2v.3l.1.1v.2-.1H17Zm.2 3.7v.1h-.1v-.1l-.1-.1.1-.1zm0 0" style="stroke:none;fill-rule:nonzero;fill:#7fffc3;fill-opacity:1"/></g><path d="M14.1 3.5Zm-.5 13.7zm3-3V14M14.1 3.6ZM16.6 14Zm0 .2" style="stroke:none;fill-rule:nonzero;fill:#7fffc3;fill-opacity:1"/><g clip-path="url(#b)"><path d="m20.7 15.8.1.1v.2l.1.1v.1h.1v.1l.1.1v.5h.1l.1.1v.4h.1v.2h.1v.5h.1v.2h.1v.3h-.1v.4h-.2v.9h-.1v.1H21v.1H21v.1h-.1v.1h-.1v.2H20v-.1h-.4v-.1h-.2v-.1h-.1v-.1h-.1V20H19v.2h.1v.7H19v.1H19v.3h.1v.1H19l-.1.1v.2l-.1.1v.1h-.2v.1h-.1v.1h-.7l-.2-.2h-.3v-.2h-.1l-.1-.1-.1-.1v-.2h-.2v-.1h-.1V21h-.1v-.2h-.1v-.1h-.1v.2l-.1.1v.4h-.1v.1l-.1.1v.6H16v.2h-.1v.1h-.2v.1h-.8l-.1.1h-.1v-.2h-.1v-.1h-.2v-.2h-.1V22h-.1v-.3H14v-.1l-.1-.1v-.2h-.1v-1.1h-.1v.3h-.1v.9h-.1v.1l-.1.1v.3h-.1v.4h-.1v.3h-.1v.1H13v.1l-.1.1v.1h-.2v.1h-.4v.1H12L12 23V23h-.1v-.1h-.2v-.1l-.1-.1-.1-.2h-.1v-.1h-.1v-.5h-.1v-.3H11v-.4H11v.4l-.1.1v.3l-.1.1v.3h-.3v.3h-.1v.1h-.2v.1H10l-.1.1-.1.1h-.1l-.1.1h-.3l-.1-.1H9v-.2h-.2v-.2h-.2v-.2l-.1-.1v-.7.1h-.1v.3h-.1v.3l-.1.1h-.1v.3h-.3v.2h-.1l-.1.1h-.4l-.1-.1H7v-.1h-.3v-.1h-.1l-.1-.1v-.3h-.2V22h-.1v-.8.1H6v.6H6v.1h-.2v.2h-.2v.4h-.3v.1H5v.1h-.6l-.1-.1h-.1l-.1-.1H4v-.2H4v-.2h-.1V22h-.1v-.3l.1-.1V21H4v-.8h.2v-.9h.1v-.1h.1v-.6h.1v-.3l.2-.1V18l.1-.1v-1.1l.1-.1v-.1H5v-.3l.1-.1V16h.1v-.3l.1-.1v-.3h.1V15l.1-.1h.1v-.4l.1-.1v-.6h.1v-.4H6V13H6v-.3h.1v-.1h.1v-.1h.1v-.7h.1v-.3l.2-.1V11l.1-.1v-.2h.1v-.1H7v-.5L7 10h.1v-.7l.1-.1v-.8H7v-.2h-.1V8h-.1v-.2l-.1-.1-.1-.1v-.1h-.1v-.2h.1V7h-.1v-.6h-.1v-.3h-.1v-.9h.1v-.9h.1V4h.1l.1-.1v-.6H7v-.1H7v-.1l.1-.1V3h.1v-.2h.1v-.1l.1-.1h.1l.1-.1v-.1h.1v-.2H8v-.4h.3v-.1h.4v-.2h.1v-.1h.5v-.2h.2l.1-.1.1-.1h.6l.1-.1V.7h.1V.6h.9v.1h.2V.6h.8v.1h.4l.1-.1v.1h.2l.1.1h.5V1h.1v.1h.5v.2h.3v.1h.1v.1h.1v.1h.1v.1h.1v.1h.1V2l.1.1v.1h.1l.1.1h.1v.1h.1v.2h.2v.1h.1v.1h.1v.1h.1v.3h.2l.1.1v.1h.1v.1h.1v.1h.1v.3h.1V4h.2v.5h.1v.2h.2V5h.1v.2h.1v.6h.1V6h.1v.2h.1v.6h.1v.3h.1v.1h.1v.6H18v.3h.1v.2H18v.2h.1v.7l.1.1v.5h.1v.1l.1.1.1.1v.3h.2v.2h.1v.5h.1v.3h.1v.1l.1.1v.1l.1.1v.2l.1.1h.1v.3h.1v.3l.1.1v.1l.1.1.1.1v.2h.1v.3h.1v.1h-.1v.2h.3v.5h.1v.2l.1.1v.2h.1v.3l.1.1v.1h.1v.3Zm-3.6 4.6v.3h.2v.2h.2v.1h.1v.3h.1v.1h.1v.1h.5v-.1h.1v-.9h.2v-.2l-.1-.1v-.3l-.1-.1v-.6h-.1v-.9h-.1v-.4H18v-.7H18V17h-.1v-.4h-.1V16l-.1-.1v-.7h-.1l-.1-.1v-.6h-.1v-.2h-.1V14l-.1-.1v-.1h.1v-.2h-.1v-.2l-.1-.2v-.5h.1v-.2h.1l.1.1h.1v.2h.1v.4h.1v.1h.1v.5h.1v.6h.2v.1h.1v.5h.1v.4l.1.1v.4h.1v.9h.1v.1h.1l.1.1v.4h-.1v.2h.1v.2h.2v.8h.1l.1.1v.1h.1v.4h.1v.1h.2v.1h.1v.3h.2v.1h.3v.1h.1l.1-.1h.1v-.3h.1v-.2h.2v-.6h.1v-.3h.1v-.2h-.1v-.4h-.1v-.2h-.1v-.3h-.1V17h-.1v-.2h-.2v-.6h-.1V16H20v-.6H20V15h-.1v-.2h-.1v-.1h-.1v-.3h-.1v-.2h-.1V14h-.1v-.3h-.1v-.5h-.1v-.1H19V13H19v-.4h-.1v-.1h-.1v-.2h-.1v-.1h-.1v-.4h-.2v-.6h-.1V11l-.1-.2-.1-.1v-.1H18v-.2l-.1-.1v-.1h-.1v-.6h-.2v-.9l-.1-.1v-.2h-.1V7h-.1v-.6h-.1v-.1H17v-.5h-.2v-.1l-.1-.1v-.1l-.1-.1V5h-.2v-.3h-.1v-.2h-.1V4h-.1v-.3h-.3v-.3h-.2v-.1h-.1v-.2l-.1-.1h-.1V3h-.1v-.1h-.1v-.1h-.3v-.3h-.2v-.2h-.2v-.1H14V2h-.2V2h-.1v-.2l-.1-.1h-.3v-.1h-.5v-.1h-.1v-.1h-.9v.1h-.6v-.1h-.6l-.1.1v.1h-.3v-.1H10v.1l-.1.1h-.2v.1h-.2l-.1.1h-.3L9 2v.1l-.1.1h-.3v.2q-.1 0 0 0h-.1v.1h-.1v.1h-.2v.1h-.1V3H8v.2h-.3v.2h-.1l-.1.1v.1h-.1v.2l-.1.1v.2h-.1v.3l.1.2-.1.1v.4H7v.1H7V7h.1v.3l.1.1q0 .1 0 0v.2h.1v.3h.1v.3h.1l.1.1v.3h.2v.9h-.1v.4l-.1.1v.6l-.1.1v.5h-.1v.1h-.1v.4l-.1.1v.1H7v.3H7v.3h-.1v.4h-.1v.1h-.1v.2h-.1v.7h-.2v.3h-.1v.8H6v.3l-.1.1v.6h-.2v.4l-.1.1v.2h-.1v.3l-.1.1v.6l-.1.1v.1h-.1v.4h-.1l-.1.2v.6H5v.3h-.1v.4l-.1.1v.2h-.1v.4h-.1v.4h-.1v.6h-.1v.8h.2v.1h.2v-.1H5V22H5V22l.2-.1.1-.1v-.1h.1v-.3h.2V21l.1-.1v-.4H6l.1-.1v-.7h.1v-.1h.1v-.9h.1v-.3h.1V18h.1v-.2h-.1v-.1l.2-.1v-.2l.1-.1V17l.1-.1v-.4l.1-.2V16H7v-.2l.1-.1.1-.1v-.8h.1V14h.1l.1-.1h.2v-.1H8V15h-.1v.4l-.1.1v.6l-.1.1v.4h.1v.1h-.1v.1l-.1.1v.6h-.1v.4l-.1.1v.9h-.1v.4H7v.4H7v.8h-.1l-.1.2v.4h-.1v.9l.1.1v.1l.1.1H7v.1h.1v.1h.1l.1.1h.2l.1-.1h.1V22H8v-.2H8l.1-.1v-1.3h.1v-.1l.1-.1V20h.1v-.3h.1v-.4h.1V19l.1-.1v-.4h.1V18H9v-.5H9v-.6l.1-.1v-.1h.1v-.5h.1v-.4h.1v-.5h.1l.1-.2v-.4h.3v.2h.1v.9h-.1v.4h-.1v.9l-.1.1v.5h-.1v.6h-.1v.4l-.1.1v.7h-.1v.8h-.1v.2H9v.2h.1V22l-.1.1v.1h.2v.2h.2v.1h.3l.1-.1h.1v-.1h.1v-.1h.2v-.5l.1-.1v-.1h.1v-.6h.1v-.1h.1v-1h.1v-.3h.1V19h.1v-1.3h.1v-.5h.1v-.1L11 17v-.8h.1v-.1h.1v-.5h.1v-.2l-.1-.1v-.6h.2l.1-.1h.5v.2H12v.5h-.1v1.2h-.1v1h-.1v.5l-.1.1v2.5h.1v.4l.1.1v.5h.1v.5h.1l.1.1h.1v.2h.1v.1h.3v-.1h.1v-.2l.1-.1V22l.1-.1v-.7h.2V21H13v-.5l.1-.1V20h.1v-.1l.1-.1V19h.1v-.3h-.1v-.3l.1-.1v-1.4h-.1v-.2h.1v-.4l.1-.1v-1.5h.1v-.1h.2l.1.1v.4h.1l.1.1v.1H14v.3h.1v.2H14v.8l.1.1v1h.1v.4H14v.1h.1v.1h.1v.2l-.1.1h.1v1.1h.1v.7h.1v.9h.1v.1l.1.1v.1h.1v.2l.1.1v.1h.6v-.4h.1V21h.1v-.5l.1-.2v-.9l-.1-.1h-.1v-.9h-.1V18h-.1v-1h-.1v-1h-.1v-.1l-.1-.1v-1.1H15v-.1h-.1v-.3h.4v.2l.1.1v.1h.1v.1h.1v.4h.1v.4l.1.1v.4h.1v.4h.1v.5h.1v.3h.1l.1.1v.5l.1.1v.4l.1.1v1h.1v.1h.2v.5l.2.1h.1zM14.2 5.9h-.1v.2H14v.1h-.2v.5h.1v.5h.1v.1h.1l.1.1h.3v-.1h.2V6.1l-.2-.2h-.2Zm1.1.1v1.1h.2v.1h.4V7h.1v-.3h.1v-.4l-.1-.1V6h-.1v-.1l-.1-.1h-.4zm0 0" style="stroke:none;fill-rule:nonzero;fill:#000;fill-opacity:1"/></g></svg>